<svg xmlns="http://www.w3.org/2000/svg" xmlns:xlink="http://www.w3.org/1999/xlink" width="1200" height="1200" viewBox="0 0 1200 1200"><circle stroke="none" fill="#000000" r="48%" cx="50%" cy="50%"/><g transform="translate(600 600) scale(0.69 0.69) rotate(0) translate(-600 -600)" style="fill:#FFF200"><svg fill="#FFF200" xmlns="http://www.w3.org/2000/svg" viewBox="0 0 100 100" x="0px" y="0px"><title>Artboard 8</title><g data-name="Livello 3"><path d="M91.09,43a2.49,2.49,0,0,0-2.21-1.71,8.24,8.24,0,0,0-.89-.07c-1,0-2-.48-3-.48-4.3-.7-5.3-1.05-9.75-2l-4.45-.9c-.7-.15-2.2-.35-2.35-.4a58.39,58.39,0,0,0-7.25-.75c-1.45-.05-4.4-.1-4.55-.15-10.6-1.2-22.2-.25-32.95-.25-2.7,0-5.4-.05-8.1,0-3.1.1-4.15.1-4.15.15-.05.25-2.08-.16-2.39.36a5.43,5.43,0,0,0-.52,2.68c-.14,6.61,1.36,13.18,2.36,19.71a9.45,9.45,0,0,0,.4,2.65c.4.8,2.5.85,2.65.9,1.9.2,2.9-.25,4.75-.45.6-.1,1.2-.15,1.75-.2.3,0,1.2-.1.9-.1-.1,0-.2,0-.3,0a6.13,6.13,0,0,1,.9,0c1.4,0,2.85-.05,4.25-.1,1.75,0,3.45-.25,5.2-.4,6.15-.5,12.55-1,18.75-1,2.88,0,5.75.17,8.63.3a57.27,57.27,0,0,0,7.51.27,31.63,31.63,0,0,1,11.17,1.5C79,63,81.06,64.07,82.63,64s2.91-1.54,3.77-2.76a25.87,25.87,0,0,0,3.93-7.59,33.7,33.7,0,0,0,1-7A8,8,0,0,0,91.09,43ZM13,60.24l.15-.15S13.13,60.24,13,60.24ZM82.63,57c-.14.87,0,2.46-1.11,2.78a6,6,0,0,1-2.28-.35q-1.72-.31-3.45-.57A97.8,97.8,0,0,0,62.43,58c-2,0-3.85-.15-5.75-.15-1,0-2.8-.15-2.8-.15h-.3c-8.35.3-17,.15-25.1,1.1-2,.2-4.1.15-6.05.2s-7.64,2.28-8-.86c-.1-.86-.21-1.72-.33-2.59l.25,0a4.6,4.6,0,0,0,.83-.11,74.93,74.93,0,0,1,17.16-1.71c1.5.05,3,.15,4.55.05,1.8-.05,5.45-.25,5.6-.2,8.1.6,16.1,1.7,24.2,1.9,2.52,0,5,.24,7.54.34s4.66-.21,7,.19a4.59,4.59,0,0,0,1.52.08Zm.54-2.83a3.67,3.67,0,0,0-.64-.14c-2-.27-4-.49-6-.68-8-.77-16.12-1-24.18-1.65-2.35-.15-4.7-.65-7.1-.75-1.16,0-2.33-.1-3.5-.13-3.45-.1-6.91-.13-10.35,0-1.35,0-2.65,0-4,.2-.9.15-2.65.35-2.8.35A57.9,57.9,0,0,0,15,52.67a5,5,0,0,0-1.28.33c-.21-1.41-.44-2.82-.68-4.22a16.52,16.52,0,0,0,6.45-.19C23,48,26.44,47.65,30,47.4c2.61-.17,5.36.16,8,.25,5.4.19,10.79.39,16.19.49q3.69.06,7.37.22c1.8.08,3.75.6,5.55.41a32.49,32.49,0,0,1,3.73-.48l4.45.45a5.74,5.74,0,0,0,.85,0,49.57,49.57,0,0,1,6.64.93,1.69,1.69,0,0,0,1.38-.1.84.84,0,0,0,.15-.18C83.89,51,83.5,52.58,83.17,54.16Zm-4.34-8-.9,0c.6-.05-.75-.1-1.05-.15-.8,0-1.75-.15-2.65-.2-2.85-.3-5.55,0-8.4-.15-7-.3-13.66-.87-19-.53s-10.74-.47-16.11-.47c-3.75,0-5.6.2-9.6.3-2.87.07-5.65.78-8.53.59h-.13L12.33,45c-.24-1.15-1-4-.18-5.07a1.45,1.45,0,0,1,.44-.34c1.53-.85,2.77-.34,4.34-.34,4.05,0,8.1,0,12.15-.15,2,0,6.05,0,6.2,0,7.2.4,13.95.1,21.25.3,2.55.1,4.75.3,7.2.5,1.25.05,3.7.25,3.85.25,2.3.25,4.8,1,7,1.4.3.1.9.2,1,.25,2.25.5,4.8,1,5.75,1.1A21.48,21.48,0,0,1,85.73,44c-.26,1-.53,2-.81,3.08l-.18,0C82.87,46.75,80.69,46.26,78.83,46.12Zm10.26,6.15a40.43,40.43,0,0,1-2.83,6c-.22.4-.59.87-1,.74s-.48-.69-.46-1.13a28.75,28.75,0,0,1,.37-4c.21-1.16,2.72-9.31,4.48-7.5C90.78,47.51,89.54,51,89.09,52.27Z"/></g></svg></g></svg>